<svg xmlns="http://www.w3.org/2000/svg" viewBox="0 0 859 200" class="jsx-1504274618"><path d="M556.78,496.7h18c7,0,11-4,11-11v-58c0-7-4-11-11-11h-18c-7,0-11,4-11,11v58C545.78,492.7,549.78,496.7,556.78,496.7Zm51-160h107c7,0,11-4,11-11v-18c0-7-4-11-11-11h-107c-34,0-62,27-62,61v8c0,7,4,11,11,11h18c7,0,11-4,11-11v-8C585.78,345.7,595.78,336.7,607.78,336.7Zm118,69v-18c0-7-4-11-11-11h-118c-7,0-11,4-11,11v18c0,7,4,11,11,11h118C721.78,416.7,725.78,412.7,725.78,405.7Zm-198-29c-34,0-62,27-62,61v48c0,7,4,11,11,11h18c7,0,11-4,11-11v-48c0-11,10-21,22-21h7c7,0,11-4,11-11v-18c0-7-4-11-11-11Zm-282,58a62.31,62.31,0,0,0,62,62h107c7,0,11-4,11-11v-18c0-7-4-11-11-11h-107a22.2,22.2,0,0,1-22-22v-7c0-7-4-11-11-11h-18c-7,0-11,4-11,11Zm29-138h-18c-7,0-11,4-11,11v58c0,7,4,11,11,11h18c7,0,11-4,11-11v-58C285.78,300.7,281.78,296.7,274.78,296.7Zm22,120h118c7,0,11-4,11-11v-18c0-7-4-11-11-11h-118c-7,0-11,4-11,11v18C285.78,412.7,289.78,416.7,296.78,416.7Zm-69-40a22.2,22.2,0,0,1-22-22v-47c0-7-4-11-11-11h-18c-7,0-11,4-11,11v47a62.31,62.31,0,0,0,62,62h7c7,0,11-4,11-11v-18c0-7-4-11-11-11Zm797,29v-18c0-7-4-11-11-11h-157c-7,0-11,4-11,11v18c0,7,4,11,11,11h157C1020.78,416.7,1024.78,412.7,1024.78,405.7Zm-219,0v-18c0-7-4-11-11-11h-18c-7,0-11,4-11,11v18c0,7,4,11,11,11h18C801.78,416.7,805.78,412.7,805.78,405.7Zm61,51h147c7,0,11,4,11,11v18c0,7-4,11-11,11h-147c-34,0-61-28-61-62v-7c0-7,4-11,11-11h18c7,0,11,4,11,11v7C845.78,446.7,854.78,456.7,866.78,456.7Zm0-120h147c7,0,11-4,11-11v-18c0-7-4-11-11-11h-147a60.61,60.61,0,0,0-61,61v8c0,7,4,11,11,11h18c7,0,11-4,11-11v-8A20.51,20.51,0,0,1,866.78,336.7Z" transform="translate(-165.78 -296.7)" class="jsx-1504274618"></path></svg>